<svg xmlns="http://www.w3.org/2000/svg" width="512" height="512" viewBox="0 0 512 512">
  <defs>
    <linearGradient id="dropdown-gradient" x1="256" y1="0" x2="256" y2="512" gradientUnits="userSpaceOnUse">
      <stop offset="0" stop-color="#7D41A6"/>
      <stop offset=".49" stop-color="#A988BF"/>
      <stop offset="1" stop-color="#7D41A6"/>
    </linearGradient>
  </defs>
  <path fill="url(#dropdown-gradient)" d="M256 482c-60.4 0-117.2-23.5-159.8-66.2C53.6 373.1 30 316.4 30 256S53.5 138.8 96.2 96.2C138.9 53.6 195.6 30 256 30s117.2 23.5 159.8 66.2C458.4 138.9 482 195.6 482 256s-23.5 117.2-66.2 159.8C373.1 458.4 316.4 482 256 482Zm0-140c-1.8 0-3.6-.7-4.9-2.1l-131-131c-2.7-2.7-2.7-7.2 0-9.9l27-27c2.7-2.7 7.2-2.7 9.9 0l99.1 99.1 99.1-99.1c2.7-2.7 7.2-2.7 9.9 0l27 27c2.7 2.7 2.7 7.2 0 9.9l-131 131c-1.5 1.4-3.3 2.1-5.1 2.1Zm-121.1-138L256 325.1 377.1 204 360 186.9l-99.1 99c-2.7 2.7-7.2 2.7-9.9 0l-99.1-99-17 17.1ZM256 512c-68.6 0-133-26.6-181.2-74.8C26.6 389 0 324.6 0 256 0 187.8 26.6 123.5 74.8 75.2 123.1 26.7 187.5 0 256 0s132.9 26.7 181.2 75.2C485.4 123.5 512 187.8 512 256c0 68.6-26.6 133-74.8 181.2C389 485.4 324.6 512 256 512Zm0-498C122.6 14 14 122.6 14 256s108.6 242 242 242 242-108.6 242-242S389.4 14 256 14Zm0 30C139.1 44 44 139.1 44 256s95.1 212 212 212 212-95.1 212-212S372.9 44 256 44Z"/>
</svg>
