<svg xmlns="http://www.w3.org/2000/svg" viewBox="0 0 512 512">
  <g fill="#8241AB">
    <path d="M203.6 491.6c-18.8-18.8-18.8-49.3 0-68l121.9-121.9c25.4-25.4 25.4-66.5 0-91.8l-122-122c-18.8-18.8-18.8-49.2 0-68s49.2-18.8 68 0l206.6 206.6c16.2 16.2 16.2 42.5 0 58.7L271.6 491.6c-18.7 18.8-49.2 18.8-68 0Z"/>
    <path d="M35.1 395.9c-18.8-18.8-18.8-49.2 0-68l39.2-39.2c18.2-18.2 18.2-47.7 0-65.9l-39.2-39.2c-18.8-18.8-18.8-49.2 0-68s49.2-18.8 68 0L214 226.3c16.2 16.2 16.2 42.5 0 58.7L103.2 395.9c-18.8 18.8-49.3 18.8-68.1 0Z"/>
  </g>
</svg>
